<?xml version="1.0" standalone="no"?>
<!DOCTYPE svg PUBLIC "-//W3C//DTD SVG 20010904//EN"
 "http://www.w3.org/TR/2001/REC-SVG-20010904/DTD/svg10.dtd">
<svg version="1.0" xmlns="http://www.w3.org/2000/svg"
 width="500.000000pt" height="500.000000pt" viewBox="0 0 500.000000 500.000000"
 preserveAspectRatio="xMidYMid meet">
<metadata>
Created by potrace 1.14, written by Peter Selinger 2001-2017
</metadata>
<g transform="translate(0.000000,500.000000) scale(0.100000,-0.100000)"
fill="#000000" stroke="none">
<path d="M2215 4384 c-356 -54 -668 -187 -945 -402 -395 -307 -670 -777 -747
-1275 -21 -137 -23 -429 -4 -567 125 -906 854 -1621 1753 -1719 655 -72 1288
171 1718 659 249 282 397 580 470 940 128 643 -80 1333 -541 1791 -321 319
-701 510 -1140 574 -133 19 -438 19 -564 -1z m649 -133 c307 -62 608 -209 858
-420 512 -431 755 -1138 618 -1804 -117 -565 -505 -1062 -1025 -1312 -286
-137 -561 -194 -890 -182 -193 7 -343 33 -509 88 -949 316 -1484 1301 -1232
2271 93 355 319 711 599 945 261 217 564 361 877 417 132 24 141 24 375 21
179 -2 240 -6 329 -24z"/>
<path d="M2553 3515 c-28 -20 -22 5 -148 -614 -115 -562 -115 -558 -61 -582
32 -15 72 -4 91 24 13 21 235 1074 235 1118 0 27 -44 69 -72 69 -13 0 -33 -7
-45 -15z"/>
<path d="M1965 3399 c-32 -18 -425 -411 -441 -442 -9 -16 -12 -38 -9 -50 4
-12 107 -122 228 -244 194 -195 226 -223 253 -223 39 0 74 36 74 76 0 24 -30
58 -187 216 l-187 188 187 188 c157 159 187 194 187 218 -1 33 -15 56 -47 72
-26 14 -32 14 -58 1z"/>
<path d="M2975 3398 c-30 -17 -44 -40 -45 -72 0 -24 30 -59 187 -218 l187
-188 -187 -188 c-161 -161 -187 -191 -187 -218 0 -39 36 -74 76 -74 25 0 62
33 251 223 121 122 224 232 228 244 3 12 0 34 -9 50 -17 33 -411 426 -443 442
-27 14 -33 13 -58 -1z"/>
<path d="M980 1670 l0 -140 100 0 c93 0 100 1 100 20 0 17 -8 19 -72 22 l-73
3 -3 118 -3 117 -24 0 -25 0 0 -140z"/>
<path d="M1250 1670 l0 -140 25 0 25 0 0 140 0 140 -25 0 -25 0 0 -140z"/>
<path d="M1400 1670 l0 -140 24 0 c23 0 25 4 28 53 l3 52 68 3 c59 3 67 5 67
22 0 18 -7 20 -70 20 l-70 0 0 40 0 40 75 0 c73 0 75 1 75 25 l0 25 -100 0
-100 0 0 -140z"/>
<path d="M1680 1670 l0 -140 105 0 c98 0 105 1 105 20 0 17 -8 19 -77 22 l-78
3 -3 38 -3 37 70 0 c64 0 71 2 71 20 0 17 -8 19 -67 22 l-68 3 -3 33 -3 32 75
0 c74 0 76 1 76 25 l0 25 -100 0 -100 0 0 -140z"/>
<path d="M2174 1796 c-69 -30 -100 -116 -67 -183 53 -109 218 -113 268 -6 59
123 -71 245 -201 189z m139 -66 c58 -64 11 -160 -78 -160 -40 0 -87 49 -88 92
-3 97 100 140 166 68z"/>
<path d="M2477 1803 c-4 -3 -7 -66 -7 -140 l0 -133 30 0 c30 0 30 1 30 55 l0
55 65 0 c58 0 65 2 65 20 0 18 -7 20 -65 20 l-65 0 0 40 0 39 73 3 c66 3 72 5
75 26 3 22 1 22 -96 22 -54 0 -102 -3 -105 -7z"/>
<path d="M2954 1796 c-92 -40 -108 -164 -29 -236 23 -22 36 -25 95 -25 53 0
73 4 89 19 19 17 20 22 8 34 -13 12 -19 12 -45 -2 -45 -23 -78 -20 -113 12
-26 23 -32 36 -32 71 0 76 67 116 140 86 32 -14 39 -14 51 -1 13 13 11 17 -19
35 -39 24 -99 27 -145 7z"/>
<path d="M3261 1792 c-66 -36 -91 -133 -51 -199 52 -86 199 -85 256 3 26 39
23 113 -6 153 -42 59 -132 79 -199 43z m114 -36 c63 -27 76 -106 26 -157 -33
-33 -67 -37 -111 -14 -69 36 -67 134 4 169 38 19 39 19 81 2z"/>
<path d="M3570 1670 l0 -140 78 0 c134 1 192 44 192 144 0 36 -6 52 -31 80
-36 42 -79 56 -171 56 l-68 0 0 -140z m181 77 c37 -28 50 -88 28 -129 -14 -26
-68 -48 -119 -48 l-40 0 0 95 0 95 58 0 c31 0 64 -6 73 -13z"/>
<path d="M3927 1803 c-4 -3 -7 -66 -7 -140 l0 -133 105 0 c98 0 105 1 105 20
0 18 -7 20 -75 20 l-75 0 0 40 0 40 65 0 c58 0 65 2 65 20 0 18 -7 20 -65 20
l-65 0 0 35 0 34 73 3 c66 3 72 5 75 26 3 22 1 22 -96 22 -54 0 -102 -3 -105
-7z"/>
</g>
</svg>
